<svg width="25" height="25" viewBox="0 0 25 25" fill="none" xmlns="http://www.w3.org/2000/svg">
<path d="M21.1153 0.5H3.88468C2.01537 0.5 0.5 2.01537 0.5 3.88468V21.1153C0.5 22.9846 2.01537 24.5 3.88468 24.5H21.1153C22.9846 24.5 24.5 22.9846 24.5 21.1153V3.88468C24.5 2.01537 22.9846 0.5 21.1153 0.5Z" stroke="#DE6E2E" stroke-miterlimit="10"/>
<path d="M4.43872 17.8616V6.50882C4.43872 5.96066 4.65613 5.43489 5.04326 5.04682C5.43038 4.65874 5.95563 4.44005 6.50378 4.43872H18.4912C19.0402 4.43872 19.5667 4.65682 19.955 5.04504C20.3432 5.43326 20.5613 5.95979 20.5613 6.50882V18.4912C20.5613 19.0402 20.3432 19.5667 19.955 19.955C19.5667 20.3432 19.0402 20.5613 18.4912 20.5613H7.45572" stroke="#DE6E2E" stroke-miterlimit="10"/>
<path d="M7.10818 8.20117H12.4975M7.10818 10.8706H12.4975M7.10818 13.5451H12.4975M17.0154 14.1244V8.38753C17.0142 8.33851 16.9941 8.29184 16.9594 8.25717C16.9248 8.22249 16.8781 8.20245 16.8291 8.20117H15.4742C15.4243 8.20115 15.3764 8.22063 15.3406 8.25544C15.3048 8.29025 15.2841 8.33765 15.2828 8.38753V14.1244C15.2828 14.1738 15.2632 14.2212 15.2282 14.2561C15.1933 14.2911 15.1459 14.3107 15.0964 14.3107H14.5323L16.0081 16.0282C16.0256 16.0485 16.0472 16.0647 16.0716 16.0759C16.0959 16.087 16.1223 16.0928 16.1491 16.0928C16.1759 16.0928 16.2023 16.087 16.2267 16.0759C16.251 16.0647 16.2726 16.0485 16.2901 16.0282L17.7659 14.3107H17.2018C17.1528 14.3094 17.1061 14.2894 17.0714 14.2547C17.0367 14.22 17.0167 14.1734 17.0154 14.1244Z" stroke="#DE6E2E" stroke-linecap="round" stroke-linejoin="round"/>
</svg>
