<svg width="308" height="33" viewBox="0 0 308 33" fill="none" xmlns="http://www.w3.org/2000/svg">
<path d="M0 15.7C0 10.3823 0 7.72347 0.985449 5.67127C1.96942 3.62216 3.62216 1.96942 5.67127 0.985449C7.72347 0 10.3823 0 15.7 0H292.3C297.618 0 300.277 0 302.329 0.985449C304.378 1.96942 306.031 3.62216 307.015 5.67127C308 7.72347 308 10.3823 308 15.7V17.3C308 22.6177 308 25.2765 307.015 27.3287C306.031 29.3778 304.378 31.0306 302.329 32.0146C300.277 33 297.618 33 292.3 33H15.7C10.3823 33 7.72347 33 5.67127 32.0146C3.62216 31.0306 1.96942 29.3778 0.985449 27.3287C0 25.2765 0 22.6177 0 17.3V15.7Z" fill="#C5C1C1"/>
</svg>
