<svg width="172" height="47" viewBox="0 0 172 47" fill="none" xmlns="http://www.w3.org/2000/svg">
<g filter="url(#filter0_d_1_223)">
<path d="M10 16.85C10 14.1912 10 12.8617 10.4927 11.8356C10.9847 10.8111 11.8111 9.98471 12.8356 9.49272C13.8617 9 15.1912 9 17.85 9H154.15C156.809 9 158.138 9 159.164 9.49272C160.189 9.98471 161.015 10.8111 161.507 11.8356C162 12.8617 162 14.1912 162 16.85V28.15C162 30.8088 162 32.1383 161.507 33.1644C161.015 34.1889 160.189 35.0153 159.164 35.5073C158.138 36 156.809 36 154.15 36H17.85C15.1912 36 13.8617 36 12.8356 35.5073C11.8111 35.0153 10.9847 34.1889 10.4927 33.1644C10 32.1383 10 30.8088 10 28.15V16.85Z" fill="white"/>
</g>
<defs>
<filter id="filter0_d_1_223" x="0" y="0" width="172" height="47" filterUnits="userSpaceOnUse" color-interpolation-filters="sRGB">
<feFlood flood-opacity="0" result="BackgroundImageFix"/>
<feColorMatrix in="SourceAlpha" type="matrix" values="0 0 0 0 0 0 0 0 0 0 0 0 0 0 0 0 0 0 127 0" result="hardAlpha"/>
<feMorphology radius="1" operator="dilate" in="SourceAlpha" result="effect1_dropShadow_1_223"/>
<feOffset dy="1"/>
<feGaussianBlur stdDeviation="4.5"/>
<feComposite in2="hardAlpha" operator="out"/>
<feColorMatrix type="matrix" values="0 0 0 0 0.341667 0 0 0 0 0.335972 0 0 0 0 0.335972 0 0 0 0.25 0"/>
<feBlend mode="normal" in2="BackgroundImageFix" result="effect1_dropShadow_1_223"/>
<feBlend mode="normal" in="SourceGraphic" in2="effect1_dropShadow_1_223" result="shape"/>
</filter>
</defs>
</svg>
