<svg width="24" height="24" viewBox="0 0 24 24" fill="none" xmlns="http://www.w3.org/2000/svg">
<path d="M15.6775 24C15.2647 23.9978 14.8592 23.9121 14.4986 23.7508C14.138 23.5894 13.8339 23.3576 13.6145 23.0768C11.2294 20.0669 9.08279 16.9395 7.18724 13.7131L6.47438 13.5733C5.7778 13.4204 5.13599 13.1377 4.60113 12.7481C4.06627 12.3585 3.65347 11.8731 3.39627 11.3313L0.308305 4.82289C0.0599034 4.30781 -0.0404527 3.75435 0.014722 3.20378C0.0698968 2.65322 0.279179 2.11976 0.626957 1.6432L1.01788 1.10248C1.1589 0.908763 1.36096 0.748275 1.60373 0.637151C1.84651 0.526027 2.12144 0.468185 2.40089 0.469441H2.4206C2.7042 0.470721 2.98229 0.532444 3.22643 0.648302C3.47058 0.764159 3.67203 0.929995 3.81019 1.12886L17.844 21.1276C17.9995 21.3486 18.0965 21.5931 18.129 21.8457C18.1615 22.0982 18.1288 22.3535 18.0329 22.5954C17.8461 23.0814 17.4347 23.4914 16.8831 23.7415C16.5159 23.91 16.1005 23.9991 15.6775 24ZM2.40089 1.45856C2.33632 1.45792 2.27268 1.47101 2.21643 1.49648C2.16018 1.52196 2.11332 1.55893 2.0806 1.60363L1.69132 2.14171C1.43628 2.4912 1.28297 2.88248 1.24287 3.28626C1.20276 3.69004 1.2769 4.09587 1.45972 4.4734L4.54933 10.9831C4.73635 11.3793 5.03741 11.7343 5.42792 12.0192C5.81843 12.3041 6.28733 12.5108 6.79632 12.6224L7.78184 12.8308C7.86797 12.8493 7.94816 12.8825 8.01701 12.928C8.08586 12.9735 8.14177 13.0303 8.18097 13.0946C10.0874 16.351 12.2489 19.5071 14.6526 22.544C14.8163 22.7584 15.0772 22.9136 15.3805 22.9768C15.6837 23.04 16.0057 23.0064 16.2787 22.8829C16.5582 22.7592 16.7667 22.5529 16.8601 22.3079C16.9053 22.1942 16.9207 22.0743 16.9055 21.9556C16.8902 21.8369 16.8446 21.722 16.7714 21.6182L2.73761 1.61682C2.7064 1.56723 2.65802 1.52592 2.5983 1.49785C2.53857 1.46978 2.47003 1.45614 2.40089 1.45856Z" fill="#DE6E2E"/>
<path d="M5.34596 24C4.90052 24.0009 4.46382 23.9007 4.08613 23.7111C3.54782 23.4531 3.15459 23.038 2.98867 22.5525C2.82276 22.0671 2.897 21.549 3.19588 21.1065C4.60189 19.0293 6.28056 16.7794 8.05121 14.5941C8.14051 14.4841 8.28059 14.4071 8.44061 14.38C8.60063 14.3529 8.7675 14.378 8.90451 14.4497C9.04151 14.5214 9.13743 14.6338 9.17116 14.7623C9.20489 14.8908 9.17367 15.0248 9.08437 15.1348C7.33178 17.2964 5.66954 19.5252 4.28817 21.576C4.14084 21.7959 4.10507 22.053 4.18833 22.2936C4.27159 22.5342 4.46743 22.7397 4.73493 22.8671C4.99738 22.9985 5.31367 23.0417 5.61546 22.9874C5.91726 22.9331 6.18035 22.7857 6.3479 22.5769C7.52889 21.1447 8.77721 19.5159 10.0633 17.7303C10.1479 17.6215 10.2818 17.5435 10.4368 17.5125C10.5917 17.4815 10.7556 17.5 10.8938 17.5641C11.0321 17.6283 11.1339 17.733 11.1778 17.8563C11.2218 17.9795 11.2044 18.1117 11.1293 18.2248C9.83008 20.0277 8.57025 21.6735 7.38106 23.1163C7.16185 23.3892 6.86041 23.6133 6.50467 23.7677C6.14892 23.9222 5.75038 24.0021 5.34596 24ZM10.8189 12.6224C10.7384 12.6231 10.6586 12.611 10.584 12.5868C10.5095 12.5626 10.4416 12.5268 10.3843 12.4815C10.3271 12.4361 10.2815 12.3821 10.2504 12.3225C10.2193 12.263 10.2031 12.1991 10.2029 12.1345V12.1226C10.2032 12.023 10.2404 11.9256 10.3097 11.843C11.2213 10.7774 12.0015 9.88719 12.5797 9.22909C12.1052 8.90962 11.7874 8.46532 11.6827 7.97531C11.5781 7.48529 11.6933 6.98135 12.0081 6.55319L16.7386 0.222823C16.8263 0.116054 16.962 0.0406315 17.1174 0.0123101C17.2727 -0.0160113 17.4357 0.00495982 17.5722 0.0708424C17.7088 0.136725 17.8083 0.242423 17.8501 0.365854C17.8919 0.489285 17.8726 0.620903 17.7964 0.733209L13.0659 7.06358C12.9726 7.18786 12.911 7.32576 12.8847 7.4693C12.8583 7.61283 12.8677 7.75914 12.9123 7.89974C12.957 8.04033 13.0359 8.17242 13.1446 8.28833C13.2533 8.40423 13.3895 8.50166 13.5455 8.57496L13.7639 8.6831C13.8354 8.71855 13.8971 8.76541 13.9451 8.82076C13.9931 8.8761 14.0265 8.93878 14.0432 9.00489C14.0603 9.07095 14.0603 9.13915 14.0431 9.20519C14.0258 9.27124 13.9917 9.33371 13.943 9.38867L13.7787 9.5865C13.194 10.2459 12.353 11.2073 11.3511 12.3798C11.2961 12.4538 11.2182 12.515 11.1249 12.5576C11.0316 12.6001 10.9262 12.6225 10.8189 12.6224ZM12.739 15.3471C12.6375 15.3467 12.5377 15.3264 12.4483 15.2878C12.3047 15.2257 12.1976 15.1205 12.1505 14.9952C12.1034 14.8698 12.1201 14.7346 12.197 14.6191C13.4404 12.7556 14.5524 11.0214 15.1732 9.98214C15.2102 9.91899 15.2635 9.86283 15.3294 9.81737C15.3954 9.77191 15.4726 9.73817 15.556 9.71838C15.638 9.69836 15.7245 9.69271 15.8095 9.70182C15.8945 9.71092 15.9761 9.73455 16.0487 9.77113L16.2622 9.87664C16.416 9.95278 16.5872 10.0037 16.7656 10.0263C16.9441 10.0489 17.1264 10.0429 17.302 10.0085C17.4754 9.97383 17.6385 9.91176 17.7817 9.82595C17.925 9.74013 18.0456 9.63229 18.1364 9.50869L22.8669 3.17831C22.9546 3.07155 23.0903 2.99612 23.2457 2.9678C23.401 2.93948 23.564 2.96045 23.7005 3.02633C23.8371 3.09222 23.9366 3.19791 23.9784 3.32135C24.0202 3.44478 24.0009 3.57639 23.9247 3.6887L19.1975 10.0125C19.0233 10.2475 18.7929 10.4525 18.5194 10.6155C18.2459 10.7785 17.9348 10.8963 17.6042 10.962C17.0713 11.0673 16.5107 11.0359 16.0011 10.8724C15.3441 11.9366 14.3585 13.4612 13.2827 15.0807C13.231 15.1608 13.1531 15.228 13.0572 15.2749C12.9614 15.3219 12.8513 15.3469 12.739 15.3471Z" fill="#DE6E2E"/>
<path d="M15.7317 6.75497C15.62 6.75457 15.5105 6.72996 15.4147 6.68376C15.2752 6.61636 15.1746 6.50736 15.1349 6.38058C15.0952 6.2538 15.1196 6.11956 15.2028 6.0072L18.7852 1.2093C18.869 1.09668 19.0052 1.01541 19.1637 0.983381C19.3222 0.951352 19.49 0.971184 19.6303 1.03852C19.7705 1.10585 19.8718 1.21516 19.9116 1.34241C19.9515 1.46966 19.9268 1.60443 19.843 1.71705L16.2606 6.51363C16.2064 6.58744 16.129 6.64856 16.0362 6.69091C15.9434 6.73325 15.8384 6.75534 15.7317 6.75497ZM17.7734 7.7375C17.6621 7.73752 17.553 7.71288 17.458 7.66628C17.3888 7.63303 17.3284 7.58916 17.2802 7.53716C17.2321 7.48517 17.1972 7.42607 17.1775 7.36324C17.1579 7.30042 17.1538 7.23509 17.1656 7.171C17.1773 7.10692 17.2047 7.04532 17.2461 6.98972L20.8285 2.19183C20.8683 2.13347 20.9224 2.08217 20.9875 2.04098C21.0526 1.9998 21.1274 1.96959 21.2073 1.95216C21.2873 1.93472 21.3709 1.93043 21.453 1.93953C21.5351 1.94864 21.614 1.97095 21.6851 2.00513C21.7562 2.03931 21.818 2.08467 21.8668 2.13847C21.9155 2.19228 21.9503 2.25343 21.9689 2.31827C21.9875 2.38311 21.9897 2.4503 21.9752 2.51582C21.9607 2.58134 21.9299 2.64384 21.8846 2.69958L18.3039 7.49615C18.2493 7.56998 18.1716 7.63108 18.0786 7.67341C17.9855 7.71574 17.8803 7.73783 17.7734 7.7375Z" fill="#DE6E2E"/>
</svg>
