<svg width="24" height="24" viewBox="0 0 24 24" fill="none" xmlns="http://www.w3.org/2000/svg">
<path d="M3 0C2.295 0 1.71429 0.580714 1.71429 1.28571V2.172C1.71416 2.68437 1.64717 3.19454 1.515 3.68957L0.227572 8.51786C0.0763919 9.08506 -0.000111414 9.66957 1.2178e-07 10.2566V11.3571C0.000347457 11.9419 0.160153 12.5154 0.462218 13.0161C0.764283 13.5168 1.19717 13.9256 1.71429 14.1986V22.7143C1.71429 23.4193 2.295 24 3 24H21C21.705 24 22.2857 23.4193 22.2857 22.7143V14.1986C22.8028 13.9256 23.2356 13.5169 23.5377 13.0163C23.8397 12.5157 23.9996 11.9422 24 11.3576V10.257C24 9.66986 23.9237 9.08571 23.7724 8.51829L22.485 3.69C22.3529 3.19511 22.2859 2.68509 22.2857 2.17286V1.28571C22.2857 0.580714 21.705 0 21 0H3ZM3 0.857143H21C21.2417 0.857143 21.4286 1.044 21.4286 1.28571V2.172C21.4286 2.30571 21.4329 2.43857 21.4414 2.57143H2.55857C2.56671 2.43857 2.57143 2.30571 2.57143 2.172V1.28571C2.57143 1.044 2.75786 0.857143 3 0.857143ZM2.45271 3.42857H21.5477C21.5781 3.59014 21.6137 3.75129 21.6566 3.91071L22.944 8.739C22.9667 8.82557 22.986 8.913 23.0049 9.00043H0.995571C1.01486 8.913 1.03371 8.82557 1.05686 8.739L2.34429 3.91071C2.38671 3.75129 2.42229 3.59014 2.45271 3.42857ZM0.871286 9.85714H23.1287C23.1377 9.99 23.1429 10.1229 23.1429 10.2566V11.3571C23.1429 12.6703 22.0993 13.7143 20.7857 13.7143C19.4721 13.7143 18.4286 12.6703 18.4286 11.3571V11.1429C18.4286 11.0292 18.3834 10.9202 18.303 10.8398C18.2227 10.7594 18.1137 10.7143 18 10.7143C17.8863 10.7143 17.7773 10.7594 17.697 10.8398C17.6166 10.9202 17.5714 11.0292 17.5714 11.1429C17.5714 12.5747 16.4323 13.7143 15 13.7143C13.5677 13.7143 12.4286 12.5747 12.4286 11.1429C12.4286 11.0292 12.3834 10.9202 12.303 10.8398C12.2227 10.7594 12.1137 10.7143 12 10.7143C11.8863 10.7143 11.7773 10.7594 11.697 10.8398C11.6166 10.9202 11.5714 11.0292 11.5714 11.1429C11.5714 12.5747 10.4323 13.7143 9 13.7143C7.56771 13.7143 6.42857 12.5747 6.42857 11.1429C6.42857 11.0292 6.38342 10.9202 6.30305 10.8398C6.22267 10.7594 6.11366 10.7143 6 10.7143C5.88634 10.7143 5.77733 10.7594 5.69695 10.8398C5.61658 10.9202 5.57143 11.0292 5.57143 11.1429V11.3571C5.57143 12.6703 4.52786 13.7143 3.21429 13.7143C1.90071 13.7143 0.857143 12.6703 0.857143 11.3571V10.2566C0.857143 10.1229 0.861857 9.99 0.871286 9.85714ZM12 12.7131C12.5743 13.8034 13.6834 14.5714 15 14.5714C16.2831 14.5714 17.3606 13.8351 17.9486 12.7903C18.4787 13.8343 19.5347 14.5714 20.7857 14.5714C21.0016 14.5716 21.217 14.5501 21.4286 14.5071V22.7143C21.4286 22.956 21.2417 23.1429 21 23.1429H11.1429V19.7143C11.1429 17.8221 9.60643 16.2857 7.71429 16.2857C5.82214 16.2857 4.28571 17.8221 4.28571 19.7143V23.1429H3C2.75829 23.1429 2.57143 22.956 2.57143 22.7143V14.5071C2.77929 14.5491 2.994 14.5714 3.21429 14.5714C4.46486 14.5714 5.52086 13.8347 6.05186 12.7903C6.63986 13.8351 7.71686 14.5714 9.00043 14.5714C10.3166 14.5714 11.4253 13.8034 12 12.7131ZM7.71429 17.1429C9.14614 17.1429 10.2857 18.2824 10.2857 19.7143V23.1429H5.14286V19.7143C5.14286 18.2824 6.28243 17.1429 7.71429 17.1429Z" fill="#DE6E2E"/>
</svg>
